<svg xmlns="http://www.w3.org/2000/svg" viewBox="0 0 202.67 202.67"><defs><style>.cls-1{fill:#494646;}.cls-2{fill:#fdc910;}.cls-3{fill:#7fecef;}.cls-4{fill:#13b0bc;}.cls-5{fill:#78c6b8;}.cls-6{fill:#646674;}.cls-7{fill:#ea744c;}.cls-8{fill:none;stroke:#05293d;stroke-linecap:round;stroke-width:5px;}</style></defs><title>A</title><g id="Capa_2" data-name="Capa 2"><g id="OBJECTS"><path class="cls-1" d="M199.88,6.35c-2.15,0-3.34-1.82-3.58-3.85H7.76A3.76,3.76,0,0,1,4.69,5.8V91H200.17V6.33Z"/><rect class="cls-2" x="4.69" y="91.03" width="195.49" height="14.37"/><rect class="cls-3" x="4.69" y="105.4" width="24.36" height="94.78"/><rect class="cls-4" x="29.13" y="105.4" width="24.36" height="94.78"/><rect class="cls-3" x="53.58" y="105.4" width="24.36" height="94.78"/><rect class="cls-4" x="78.03" y="105.4" width="24.36" height="94.78"/><rect class="cls-3" x="102.47" y="105.4" width="24.36" height="94.78"/><rect class="cls-4" x="126.92" y="105.4" width="24.36" height="94.78"/><rect class="cls-3" x="151.37" y="105.4" width="24.36" height="94.78"/><path class="cls-4" d="M200.05,194.29h.12V105.4H175.81v94.77h19.42C195.29,197.2,196.9,194.29,200.05,194.29Z"/><rect class="cls-1" x="20.56" y="104.87" width="12.45" height="57.49"/><rect class="cls-1" x="47.99" y="104.87" width="12.45" height="57.49"/><rect class="cls-1" x="95.52" y="104.87" width="12.45" height="57.49"/><rect class="cls-1" x="120.27" y="104.87" width="12.45" height="57.49"/><rect class="cls-1" x="145.01" y="104.87" width="12.45" height="57.49"/><rect class="cls-5" x="16.87" y="17.54" width="21.48" height="21.56" rx="10"/><rect class="cls-5" x="45.78" y="17.54" width="21.48" height="21.56" rx="10"/><rect class="cls-5" x="76.65" y="17.54" width="21.48" height="21.56" rx="10"/><path class="cls-6" d="M141.7,25.26a7.78,7.78,0,1,0,7.78-7.81A7.8,7.8,0,0,0,141.7,25.26Z"/><path class="cls-7" d="M169.83,25.26a7.78,7.78,0,1,0,7.78-7.81A7.8,7.8,0,0,0,169.83,25.26Z"/><ellipse class="cls-6" cx="149.48" cy="52.93" rx="7.78" ry="7.81"/><ellipse class="cls-6" cx="177.61" cy="52.93" rx="7.78" ry="7.81"/><rect class="cls-8" x="2.5" y="2.5" width="197.67" height="197.67" rx="10"/><line class="cls-8" x1="4.69" y1="91.03" x2="200.17" y2="91.03"/><line class="cls-8" x1="4.69" y1="106.09" x2="200.17" y2="106.09"/><rect class="cls-6" x="16.87" y="51.54" width="21.48" height="21.56" rx="10"/><rect class="cls-6" x="45.78" y="51.54" width="21.48" height="21.56" rx="10"/></g></g></svg>