<svg xmlns="http://www.w3.org/2000/svg" viewBox="0 0 202.67 202.67"><defs><style>.cls-1{fill:#a0e0a9;stroke-miterlimit:10;}.cls-1,.cls-5{stroke:#0c293c;}.cls-1,.cls-2,.cls-3,.cls-4,.cls-5{stroke-width:5px;}.cls-2,.cls-4{fill:#f06060;}.cls-2,.cls-3,.cls-4{stroke:#05293d;}.cls-3{fill:#fff6e5;}.cls-4,.cls-5{stroke-linecap:round;}.cls-5{fill:#78c6b8;stroke-linejoin:round;}</style></defs><title>C</title><g id="Capa_2" data-name="Capa 2"><g id="OBJECTS"><rect class="cls-1" x="2.5" y="2.5" width="197.67" height="197.67" rx="10"/><path class="cls-2" d="M167.1,108.44a64.29,64.29,0,1,1-64.29-64.29A64.28,64.28,0,0,1,167.1,108.44Z"/><path class="cls-3" d="M158.31,108.44a55.5,55.5,0,1,1-55.5-55.5A55.49,55.49,0,0,1,158.31,108.44Z"/><rect class="cls-3" x="98.45" y="40.03" width="8.73" height="15.72"/><rect class="cls-3" x="98.45" y="161.12" width="8.73" height="15.72"/><rect class="cls-3" x="155.5" y="104.07" width="15.72" height="8.73"/><rect class="cls-3" x="34.41" y="104.07" width="15.72" height="8.73"/><line class="cls-4" x1="167.1" y1="112.8" x2="184.61" y2="176.84"/><line class="cls-4" x1="38.53" y1="112.8" x2="21.02" y2="176.84"/><line class="cls-4" x1="160.39" y1="137.05" x2="165.12" y2="176.84"/><line class="cls-4" x1="44.64" y1="137.05" x2="39.91" y2="176.84"/><line class="cls-5" x1="54.8" y1="45.68" x2="48.8" y2="27.3"/><line class="cls-5" x1="38.54" y1="64.26" x2="20.01" y2="58.73"/><line class="cls-5" x1="26.71" y1="38.65" x2="46.4" y2="53.91"/><line class="cls-5" x1="153.01" y1="45.68" x2="159.01" y2="27.3"/><line class="cls-5" x1="169.27" y1="64.26" x2="187.8" y2="58.73"/><line class="cls-5" x1="181.1" y1="38.65" x2="161.41" y2="53.91"/></g></g></svg>