<svg xmlns="http://www.w3.org/2000/svg" viewBox="0 0 202.67 202.68"><defs><style>.cls-1{fill:#a0e0a9;stroke-miterlimit:10;}.cls-1,.cls-5{stroke:#0c293c;}.cls-1,.cls-2,.cls-3,.cls-4,.cls-5{stroke-width:5px;}.cls-2,.cls-4{fill:#f06060;}.cls-2,.cls-3,.cls-4{stroke:#05293d;}.cls-3{fill:#fff6e5;}.cls-4,.cls-5{stroke-linecap:round;}.cls-5{fill:#78c6b8;stroke-linejoin:round;}</style></defs><title>C</title><g id="Capa_2" data-name="Capa 2"><g id="OBJECTS"><rect class="cls-1" x="2.5" y="2.5" width="197.67" height="197.68"/><path class="cls-2" d="M166,109a64.29,64.29,0,1,1-64.29-64.29A64.29,64.29,0,0,1,166,109Z"/><path class="cls-3" d="M157.24,109a55.49,55.49,0,1,1-55.49-55.5A55.49,55.49,0,0,1,157.24,109Z"/><rect class="cls-3" x="97.38" y="40.62" width="8.73" height="15.72"/><rect class="cls-3" x="97.38" y="161.71" width="8.73" height="15.72"/><rect class="cls-3" x="154.43" y="104.66" width="15.72" height="8.73"/><rect class="cls-3" x="33.35" y="104.66" width="15.72" height="8.73"/><line class="cls-4" x1="166.04" y1="113.39" x2="183.54" y2="177.43"/><line class="cls-4" x1="37.46" y1="113.39" x2="19.96" y2="177.43"/><line class="cls-4" x1="159.33" y1="137.64" x2="164.06" y2="177.43"/><line class="cls-4" x1="43.57" y1="137.64" x2="38.84" y2="177.43"/><line class="cls-5" x1="53.73" y1="46.27" x2="47.73" y2="27.89"/><line class="cls-5" x1="37.48" y1="64.85" x2="18.95" y2="59.32"/><line class="cls-5" x1="25.64" y1="39.24" x2="45.34" y2="54.49"/><line class="cls-5" x1="151.95" y1="46.27" x2="157.95" y2="27.89"/><line class="cls-5" x1="168.2" y1="64.85" x2="186.73" y2="59.32"/><line class="cls-5" x1="180.04" y1="39.24" x2="160.35" y2="54.49"/></g></g></svg>