<svg xmlns="http://www.w3.org/2000/svg" viewBox="0 0 202.67 202.67"><defs><style>.cls-1{fill:#12e0fc;stroke-miterlimit:10;}.cls-1,.cls-2{stroke:#0c293c;}.cls-1,.cls-2,.cls-3,.cls-4{stroke-width:5px;}.cls-2{fill:#78c6b8;}.cls-2,.cls-3,.cls-4,.cls-5{stroke-linecap:round;stroke-linejoin:round;}.cls-3{fill:#fbb03b;}.cls-3,.cls-4,.cls-5{stroke:#05293d;}.cls-4,.cls-5{fill:none;}.cls-5{stroke-width:8px;}</style></defs><title>D</title><g id="Capa_2" data-name="Capa 2"><g id="OBJECTS"><rect class="cls-1" x="2.5" y="2.5" width="197.67" height="197.67" rx="10"/><line class="cls-2" x1="141.14" y1="44.05" x2="147.14" y2="25.67"/><line class="cls-2" x1="157.4" y1="62.64" x2="175.93" y2="57.1"/><line class="cls-2" x1="169.23" y1="37.02" x2="149.54" y2="52.28"/><rect class="cls-3" x="103.38" y="87.75" width="11.94" height="18.15" transform="translate(-35.47 115.85) rotate(-49.01)"/><path class="cls-3" d="M156.48,121.59c-3.77,4.33-24.33-7.38-45.92-26.14S74.51,58,78.27,53.62,102.59,61,124.19,79.76,160.24,117.26,156.48,121.59Z"/><path class="cls-3" d="M126.33,83.9c-.8.93-2.92.41-4.73-1.16h0c-1.81-1.57-2.61-3.6-1.8-4.53l7.75-8.92c.81-.93,2.93-.42,4.74,1.15h0c1.8,1.57,2.61,3.6,1.8,4.53Z"/><line class="cls-4" x1="105.44" y1="101.34" x2="51.23" y2="163.71"/><line class="cls-5" x1="83.83" y1="126.2" x2="68.23" y2="144.15"/></g></g></svg>