<svg xmlns="http://www.w3.org/2000/svg" viewBox="0 0 202.67 202.68"><defs><style>.cls-1{fill:#12e0fc;stroke-miterlimit:10;}.cls-1,.cls-2{stroke:#0c293c;}.cls-1,.cls-2,.cls-3,.cls-4{stroke-width:5px;}.cls-2{fill:#78c6b8;}.cls-2,.cls-3,.cls-4,.cls-5{stroke-linecap:round;stroke-linejoin:round;}.cls-3{fill:#fbb03b;}.cls-3,.cls-4,.cls-5{stroke:#05293d;}.cls-4,.cls-5{fill:none;}.cls-5{stroke-width:8px;}</style></defs><title>D</title><g id="Capa_2" data-name="Capa 2"><g id="OBJECTS"><rect class="cls-1" x="2.5" y="2.5" width="197.67" height="197.68"/><line class="cls-2" x1="137.45" y1="45.75" x2="143.45" y2="27.37"/><line class="cls-2" x1="153.7" y1="64.33" x2="172.23" y2="58.8"/><line class="cls-2" x1="165.54" y1="38.71" x2="145.85" y2="53.97"/><rect class="cls-3" x="99.69" y="89.45" width="11.94" height="18.15" transform="translate(-38.02 113.65) rotate(-49.01)"/><path class="cls-3" d="M152.78,123.28c-3.76,4.34-24.32-7.37-45.92-26.14s-36-37.49-32.28-41.82,24.32,7.37,45.91,26.14S156.55,119,152.78,123.28Z"/><path class="cls-3" d="M122.64,85.59c-.81.93-2.93.41-4.73-1.15h0c-1.81-1.58-2.62-3.6-1.81-4.53L123.86,71c.81-.93,2.93-.41,4.73,1.16h0c1.81,1.57,2.62,3.6,1.81,4.53Z"/><line class="cls-4" x1="101.74" y1="103.03" x2="47.54" y2="165.4"/><line class="cls-5" x1="80.14" y1="127.89" x2="64.54" y2="145.85"/></g></g></svg>