<svg xmlns="http://www.w3.org/2000/svg" viewBox="0 0 202.67 202.67"><defs><style>.cls-1{fill:#f7b1a4;stroke-miterlimit:10;}.cls-1,.cls-5{stroke:#0c293c;stroke-width:5px;}.cls-2{fill:#05293d;}.cls-3{fill:#e2bd47;}.cls-4{fill:#f9e8a5;}.cls-5{fill:#78c6b8;stroke-linecap:round;stroke-linejoin:round;}</style></defs><title>S</title><g id="Capa_2" data-name="Capa 2"><g id="OBJECTS"><rect class="cls-1" x="2.5" y="2.5" width="197.67" height="197.67" rx="10"/><path class="cls-2" d="M168.12,133.91a2.82,2.82,0,0,1,.58,2.16,2.85,2.85,0,0,1-1.11,1.94l-34.1,26.29a2.91,2.91,0,0,1-1.79.61l-.37,0a2.94,2.94,0,0,1-1.94-1.12l-9.56-12.39-43.25,4.45h-.14a36.14,36.14,0,0,1-8.31-.48l-11.69,9.26a2.85,2.85,0,0,1-1.81.63,2.91,2.91,0,0,1-2.29-1.09L25.42,130.55a2.92,2.92,0,0,1,.45-4.11l11.64-9.39A36.65,36.65,0,0,1,49,92.19L66.58,75.57,64.83,73.3A11.4,11.4,0,0,1,72.54,55,11.41,11.41,0,0,1,76,41.21a11.45,11.45,0,0,1,14.2.19,11.26,11.26,0,0,1,3.65-4.86,11.44,11.44,0,0,1,16,2.07l19.5,25.3a11.51,11.51,0,0,1,6-.87,11.42,11.42,0,0,1,11.4-11.19h0A11.42,11.42,0,0,1,158.1,63.26l.09,52.22v.14a37.66,37.66,0,0,1-.52,4.76Zm-6.42,1.25-6-7.75a36.95,36.95,0,0,1-22.38,21.47,11.49,11.49,0,0,1-4.78,1.6l-1.86.2,5.55,7.2Zm-9.36-19.74,0-23.76-.05-28.4a5.57,5.57,0,0,0-5.56-5.56h0a5.56,5.56,0,0,0-5.56,5.57v2.26a11.21,11.21,0,0,1,1.08,1,11.44,11.44,0,0,1,1.23,14.16,11.27,11.27,0,0,1,5.21,3.14,11.45,11.45,0,0,1-.45,16.14l-30.3,28.67,8.32-.86A11.42,11.42,0,0,1,138.73,138a12,12,0,0,1,.06,1.69q.75-.53,1.5-1.08A31,31,0,0,0,152.34,115.42Zm-8.17-19.71a5.56,5.56,0,1,0-7.65-8.08l-30.87,29.19a2.93,2.93,0,1,1-4-4.25l36.1-34.15a5.56,5.56,0,0,0-7.64-8.09L94,104.48a2.93,2.93,0,0,1-4-4.25L120.82,71a5.51,5.51,0,0,0,1.75-3.89,5.57,5.57,0,0,0-9.39-4.2L82.3,92.14a2.89,2.89,0,0,1-2,.8A2.85,2.85,0,0,1,78.17,92a2.93,2.93,0,0,1,.11-4.14L96.8,70.38h0a5.56,5.56,0,1,0-7.64-8.09l-4.2,4s0,.05-.06.06l-3.58,3.39h0L72.54,78l0,0L53,96.44a30.85,30.85,0,0,0-9.72,22.1,2.93,2.93,0,0,1-1.09,2.24l-10.42,8.38,23.28,29.07L65.54,150a2.92,2.92,0,0,1,2.42-.57,31.37,31.37,0,0,0,8.09.62l51.89-5.34a5.56,5.56,0,1,0-1.13-11.07l-16.89,1.74a2.92,2.92,0,0,1-2.31-5Zm-28.61-40L105.18,42.19a5.56,5.56,0,0,0-9.93,2.68A5.51,5.51,0,0,0,96.37,49h0l9.71,12.6,3.07-2.9A11.36,11.36,0,0,1,115.56,55.66Zm-22-.73-6.22-8.08a5.56,5.56,0,1,0-8.81,6.8l4.39,5.7h0l.35.45L85.13,58a11.3,11.3,0,0,1,8.16-3.12ZM79,63.84l-.72-.92a5.57,5.57,0,0,0-8.81,6.81l1.39,1.81L77,65.77s0,0,0,0Z"/><path class="cls-3" d="M155.7,127.41l6,7.75-29.47,22.72-5.55-7.2,1.86-.2a11.49,11.49,0,0,0,4.78-1.6,36.95,36.95,0,0,0,22.38-21.47Z"/><path class="cls-3" d="M152.3,91.66l0,23.76a31,31,0,0,1-12.05,23.15q-.75.56-1.5,1.08a12,12,0,0,0-.06-1.69,11.42,11.42,0,0,0-12.52-10.19l-8.32.86L148.19,100a11.37,11.37,0,0,0,3.56-8.3Z"/><path class="cls-3" d="M152.25,63.26l.05,28.4h-.55a11.41,11.41,0,0,0-3.11-7.84,11.27,11.27,0,0,0-5.21-3.14,11.44,11.44,0,0,0-1.23-14.16,11.21,11.21,0,0,0-1.08-1V63.27a5.56,5.56,0,0,1,5.56-5.57h0A5.57,5.57,0,0,1,152.25,63.26Z"/><path class="cls-4" d="M144.39,87.84a5.57,5.57,0,0,1-.22,7.87L107.61,130.3a2.92,2.92,0,0,0,2.31,5l16.89-1.74a5.56,5.56,0,1,1,1.13,11.07L76.05,150a31.37,31.37,0,0,1-8.09-.62,2.92,2.92,0,0,0-2.42.57l-10.45,8.28L31.81,129.16l10.42-8.38a2.93,2.93,0,0,0,1.09-2.24A30.85,30.85,0,0,1,53,96.44L72.51,78l0,0,8.77-8.31h0L84.9,66.3s0,0,.06-.06l4.2-4a5.56,5.56,0,0,1,7.64,8.09h0L78.28,87.88A2.93,2.93,0,0,0,78.17,92a2.85,2.85,0,0,0,2.12.92,2.89,2.89,0,0,0,2-.8l30.88-29.2A5.56,5.56,0,1,1,120.82,71L90,100.23a2.93,2.93,0,0,0,4,4.25l36.12-34.15a5.56,5.56,0,0,1,7.64,8.09l-36.1,34.15a2.93,2.93,0,0,0,4,4.25l30.87-29.19A5.57,5.57,0,0,1,144.39,87.84Z"/><path class="cls-3" d="M105.18,42.19l10.38,13.47a11.36,11.36,0,0,0-6.41,3l-3.07,2.9L96.37,49h0a5.56,5.56,0,0,1,1-7.81A5.57,5.57,0,0,1,105.18,42.19Z"/><path class="cls-3" d="M87.33,46.85l6.22,8.08-.26,0A11.3,11.3,0,0,0,85.13,58L83.26,59.8l-.35-.45h0l-4.39-5.7a5.56,5.56,0,1,1,8.81-6.8Z"/><path class="cls-3" d="M78.27,62.92l.72.92-2,1.91s0,0,0,0l-6.1,5.77-1.39-1.81a5.57,5.57,0,0,1,8.81-6.81Z"/><line class="cls-5" x1="64.04" y1="40.51" x2="60.09" y2="21.58"/><line class="cls-5" x1="45.83" y1="57.19" x2="28.02" y2="49.66"/><line class="cls-5" x1="36.89" y1="30.43" x2="54.78" y2="47.76"/></g></g></svg>