<svg xmlns="http://www.w3.org/2000/svg" viewBox="0 0 202.67 202.67"><defs><style>.cls-1{fill:#f9e8a5;stroke:#0c293c;stroke-miterlimit:10;}.cls-1,.cls-2,.cls-3,.cls-4{stroke-width:5px;}.cls-2{fill:#4d4d4d;}.cls-10,.cls-2,.cls-3,.cls-4,.cls-8,.cls-9{stroke:#05293d;}.cls-3{fill:#05293d;}.cls-4{fill:#b1c2b3;}.cls-5,.cls-9{fill:#ffeb79;}.cls-6,.cls-8{fill:#f06060;}.cls-7{fill:#8cc63f;}.cls-10,.cls-8,.cls-9{stroke-width:2px;}.cls-10{fill:#7ac943;}</style></defs><title>X</title><g id="Capa_2" data-name="Capa 2"><g id="OBJECTS"><rect class="cls-1" x="2.5" y="2.5" width="197.67" height="197.67" rx="10"/><rect class="cls-2" x="33.88" y="59.54" width="133.55" height="91.76"/><rect class="cls-3" x="42.21" y="67.2" width="116.9" height="76.44"/><rect class="cls-4" x="42.21" y="67.2" width="116.9" height="19.22"/><rect class="cls-5" x="43.05" y="119.51" width="3.49" height="24.13"/><rect class="cls-6" x="43.05" y="105.42" width="3.49" height="12.76"/><rect class="cls-6" x="47.91" y="93.97" width="3.49" height="15.98"/><rect class="cls-6" x="52.76" y="96.44" width="3.49" height="6.22"/><rect class="cls-6" x="57.62" y="101.34" width="3.49" height="14.84"/><rect class="cls-6" x="62.48" y="97.67" width="3.49" height="10.04"/><rect class="cls-6" x="67.34" y="108.15" width="3.49" height="10.04"/><rect class="cls-6" x="72.19" y="112.05" width="3.49" height="17.5"/><rect class="cls-6" x="77.05" y="95.66" width="3.49" height="17.5"/><rect class="cls-6" x="81.91" y="109.02" width="3.49" height="11.19"/><rect class="cls-6" x="86.77" y="92.47" width="3.49" height="18.03"/><rect class="cls-6" x="91.62" y="106.08" width="3.49" height="18.03"/><rect class="cls-6" x="106.19" y="93.21" width="3.49" height="12.87"/><rect class="cls-6" x="125.62" y="96.25" width="3.49" height="12.87"/><rect class="cls-6" x="130.48" y="91.87" width="3.49" height="8.89"/><rect class="cls-6" x="135.34" y="113.04" width="3.49" height="8.89"/><rect class="cls-6" x="120.77" y="110.65" width="3.49" height="8.89"/><rect class="cls-6" x="115.91" y="107.61" width="3.49" height="8.89"/><rect class="cls-6" x="145.05" y="100.76" width="3.49" height="14.33"/><rect class="cls-6" x="149.91" y="96.31" width="3.49" height="14.33"/><rect class="cls-6" x="154.77" y="114.76" width="3.49" height="14.33"/><rect class="cls-6" x="140.2" y="106.08" width="3.49" height="19.28"/><rect class="cls-6" x="111.05" y="97.67" width="3.49" height="26.58"/><rect class="cls-6" x="101.34" y="101.34" width="3.49" height="19.09"/><rect class="cls-6" x="96.48" y="112.94" width="3.49" height="19.09"/><rect class="cls-7" x="43.05" y="86.44" width="3.49" height="17.41"/><rect class="cls-7" x="47.91" y="86.43" width="3.49" height="6.78"/><rect class="cls-7" x="52.76" y="86.44" width="3.49" height="8.82"/><rect class="cls-7" x="57.62" y="86.44" width="3.49" height="13.79"/><rect class="cls-7" x="62.48" y="86.44" width="3.49" height="10"/><rect class="cls-7" x="67.34" y="86.44" width="3.49" height="20.7"/><rect class="cls-7" x="72.19" y="86.44" width="3.49" height="24.44"/><rect class="cls-7" x="77.05" y="86.44" width="3.49" height="8.07"/><rect class="cls-7" x="81.91" y="86.44" width="3.49" height="21.48"/><rect class="cls-7" x="86.77" y="86.44" width="3.49" height="5"/><rect class="cls-7" x="91.62" y="86.44" width="3.49" height="18.98"/><rect class="cls-7" x="96.48" y="86.44" width="3.49" height="25.61"/><rect class="cls-7" x="101.34" y="86.44" width="3.49" height="13.79"/><rect class="cls-7" x="106.19" y="86.44" width="3.49" height="6.03"/><rect class="cls-7" x="111.05" y="86.44" width="3.49" height="10.64"/><rect class="cls-7" x="115.91" y="86.44" width="3.49" height="20.7"/><rect class="cls-7" x="120.77" y="86.44" width="3.49" height="23.77"/><rect class="cls-7" x="125.62" y="86.44" width="3.49" height="9.29"/><rect class="cls-7" x="130.48" y="86.44" width="3.49" height="4.64"/><rect class="cls-7" x="135.34" y="86.44" width="3.49" height="25.97"/><rect class="cls-7" x="140.2" y="86.44" width="3.49" height="18.79"/><rect class="cls-7" x="145.05" y="86.44" width="3.49" height="13.59"/><rect class="cls-7" x="149.91" y="86.44" width="3.49" height="9.29"/><rect class="cls-7" x="154.77" y="86.44" width="3.49" height="27.5"/><rect class="cls-5" x="47.91" y="110.9" width="3.49" height="32.74"/><rect class="cls-5" x="52.76" y="103.85" width="3.49" height="39.79"/><rect class="cls-5" x="57.62" y="117.48" width="3.49" height="26.16"/><rect class="cls-5" x="62.48" y="109.02" width="3.49" height="34.62"/><rect class="cls-5" x="67.34" y="119.51" width="3.49" height="24.13"/><rect class="cls-5" x="72.19" y="130.56" width="3.49" height="13.08"/><rect class="cls-5" x="77.05" y="114.03" width="3.49" height="29.61"/><rect class="cls-5" x="81.91" y="121.24" width="3.49" height="22.4"/><rect class="cls-5" x="86.77" y="111.45" width="3.49" height="32.19"/><rect class="cls-5" x="91.62" y="125.15" width="3.49" height="18.49"/><rect class="cls-5" x="96.48" y="133.3" width="3.49" height="10.34"/><rect class="cls-5" x="101.34" y="121.24" width="3.49" height="22.4"/><rect class="cls-5" x="106.19" y="107.14" width="3.49" height="36.5"/><rect class="cls-5" x="111.05" y="125.39" width="3.49" height="18.25"/><rect class="cls-5" x="115.91" y="117.48" width="3.49" height="26.16"/><rect class="cls-5" x="120.77" y="120.61" width="3.49" height="23.03"/><rect class="cls-5" x="125.62" y="109.96" width="3.49" height="33.68"/><rect class="cls-5" x="130.48" y="101.34" width="3.49" height="42.3"/><rect class="cls-5" x="135.34" y="123.12" width="3.49" height="20.52"/><rect class="cls-5" x="140.2" y="126.33" width="3.49" height="17.31"/><rect class="cls-5" x="145.05" y="116.07" width="3.49" height="27.57"/><rect class="cls-5" x="149.91" y="111.45" width="3.49" height="32.19"/><rect class="cls-5" x="154.77" y="129.85" width="3.49" height="13.79"/><path class="cls-8" d="M66,76.81a3.3,3.3,0,1,1-3.3-3.3A3.3,3.3,0,0,1,66,76.81Z"/><path class="cls-9" d="M77.05,76.81a3.3,3.3,0,1,1-3.3-3.3A3.3,3.3,0,0,1,77.05,76.81Z"/><path class="cls-8" d="M88.14,76.81a3.31,3.31,0,1,1-3.31-3.3A3.3,3.3,0,0,1,88.14,76.81Z"/><path class="cls-9" d="M99.22,76.81a3.3,3.3,0,1,1-3.3-3.3A3.3,3.3,0,0,1,99.22,76.81Z"/><path class="cls-8" d="M110.3,76.81a3.3,3.3,0,1,1-3.3-3.3A3.29,3.29,0,0,1,110.3,76.81Z"/><path class="cls-10" d="M121.39,76.81a3.3,3.3,0,1,1-3.3-3.3A3.3,3.3,0,0,1,121.39,76.81Z"/><path class="cls-8" d="M132.47,76.81a3.3,3.3,0,1,1-3.3-3.3A3.3,3.3,0,0,1,132.47,76.81Z"/><path class="cls-10" d="M143.56,76.81a3.3,3.3,0,1,1-3.31-3.3A3.3,3.3,0,0,1,143.56,76.81Z"/><rect class="cls-10" x="47.91" y="72.52" width="4.86" height="8.7"/></g></g></svg>