<svg xmlns="http://www.w3.org/2000/svg" viewBox="0 0 202.67 202.68"><defs><style>.cls-1{fill:#f9e8a5;stroke:#0c293c;stroke-miterlimit:10;}.cls-1,.cls-2,.cls-3,.cls-4{stroke-width:5px;}.cls-2{fill:#4d4d4d;}.cls-10,.cls-2,.cls-3,.cls-4,.cls-8,.cls-9{stroke:#05293d;}.cls-3{fill:#05293d;}.cls-4{fill:#b1c2b3;}.cls-5,.cls-9{fill:#ffeb79;}.cls-6,.cls-8{fill:#f06060;}.cls-7{fill:#8cc63f;}.cls-10,.cls-8,.cls-9{stroke-width:2px;}.cls-10{fill:#7ac943;}</style></defs><title>X</title><g id="Capa_2" data-name="Capa 2"><g id="OBJECTS"><rect class="cls-1" x="2.5" y="2.5" width="197.67" height="197.68"/><rect class="cls-2" x="34.27" y="75.83" width="133.55" height="91.76"/><rect class="cls-3" x="42.6" y="83.5" width="116.9" height="76.44"/><rect class="cls-4" x="42.6" y="83.5" width="116.9" height="19.22"/><rect class="cls-5" x="43.45" y="135.81" width="3.49" height="24.13"/><rect class="cls-6" x="43.45" y="121.72" width="3.49" height="12.76"/><rect class="cls-6" x="48.3" y="110.27" width="3.49" height="15.98"/><rect class="cls-6" x="53.16" y="112.73" width="3.49" height="6.22"/><rect class="cls-6" x="58.02" y="117.63" width="3.49" height="14.84"/><rect class="cls-6" x="62.88" y="113.96" width="3.49" height="10.04"/><rect class="cls-6" x="67.73" y="124.44" width="3.49" height="10.04"/><rect class="cls-6" x="72.59" y="128.35" width="3.49" height="17.5"/><rect class="cls-6" x="77.45" y="111.96" width="3.49" height="17.5"/><rect class="cls-6" x="82.3" y="125.31" width="3.49" height="11.19"/><rect class="cls-6" x="87.16" y="108.77" width="3.49" height="18.03"/><rect class="cls-6" x="92.02" y="122.37" width="3.49" height="18.03"/><rect class="cls-6" x="106.59" y="109.5" width="3.49" height="12.87"/><rect class="cls-6" x="126.02" y="112.55" width="3.49" height="12.87"/><rect class="cls-6" x="130.88" y="108.16" width="3.49" height="8.89"/><rect class="cls-6" x="135.74" y="129.33" width="3.49" height="8.89"/><rect class="cls-6" x="121.16" y="126.94" width="3.49" height="8.89"/><rect class="cls-6" x="116.31" y="123.9" width="3.49" height="8.89"/><rect class="cls-6" x="145.45" y="117.05" width="3.49" height="14.33"/><rect class="cls-6" x="150.31" y="112.61" width="3.49" height="14.33"/><rect class="cls-6" x="155.16" y="131.06" width="3.49" height="14.33"/><rect class="cls-6" x="140.59" y="122.37" width="3.49" height="19.28"/><rect class="cls-6" x="111.45" y="113.96" width="3.49" height="26.58"/><rect class="cls-6" x="101.73" y="117.63" width="3.49" height="19.09"/><rect class="cls-6" x="96.88" y="129.24" width="3.49" height="19.09"/><rect class="cls-7" x="43.45" y="102.73" width="3.49" height="17.41"/><rect class="cls-7" x="48.3" y="102.72" width="3.49" height="6.78"/><rect class="cls-7" x="53.16" y="102.73" width="3.49" height="8.82"/><rect class="cls-7" x="58.02" y="102.73" width="3.49" height="13.79"/><rect class="cls-7" x="62.88" y="102.73" width="3.49" height="10"/><rect class="cls-7" x="67.73" y="102.73" width="3.49" height="20.7"/><rect class="cls-7" x="72.59" y="102.73" width="3.49" height="24.44"/><rect class="cls-7" x="77.45" y="102.73" width="3.49" height="8.07"/><rect class="cls-7" x="82.3" y="102.73" width="3.49" height="21.48"/><rect class="cls-7" x="87.16" y="102.73" width="3.49" height="5"/><rect class="cls-7" x="92.02" y="102.73" width="3.49" height="18.98"/><rect class="cls-7" x="96.88" y="102.73" width="3.49" height="25.61"/><rect class="cls-7" x="101.73" y="102.73" width="3.49" height="13.79"/><rect class="cls-7" x="106.59" y="102.73" width="3.49" height="6.03"/><rect class="cls-7" x="111.45" y="102.73" width="3.49" height="10.64"/><rect class="cls-7" x="116.31" y="102.73" width="3.49" height="20.7"/><rect class="cls-7" x="121.16" y="102.73" width="3.49" height="23.77"/><rect class="cls-7" x="126.02" y="102.73" width="3.49" height="9.29"/><rect class="cls-7" x="130.88" y="102.73" width="3.49" height="4.64"/><rect class="cls-7" x="135.74" y="102.73" width="3.49" height="25.97"/><rect class="cls-7" x="140.59" y="102.73" width="3.49" height="18.79"/><rect class="cls-7" x="145.45" y="102.73" width="3.49" height="13.59"/><rect class="cls-7" x="150.31" y="102.73" width="3.49" height="9.29"/><rect class="cls-7" x="155.16" y="102.73" width="3.49" height="27.5"/><rect class="cls-5" x="48.3" y="127.19" width="3.49" height="32.74"/><rect class="cls-5" x="53.16" y="120.14" width="3.49" height="39.79"/><rect class="cls-5" x="58.02" y="133.78" width="3.49" height="26.16"/><rect class="cls-5" x="62.88" y="125.31" width="3.49" height="34.62"/><rect class="cls-5" x="67.73" y="135.81" width="3.49" height="24.13"/><rect class="cls-5" x="72.59" y="146.86" width="3.49" height="13.08"/><rect class="cls-5" x="77.45" y="130.33" width="3.49" height="29.61"/><rect class="cls-5" x="82.3" y="137.53" width="3.49" height="22.4"/><rect class="cls-5" x="87.16" y="127.75" width="3.49" height="32.19"/><rect class="cls-5" x="92.02" y="141.45" width="3.49" height="18.49"/><rect class="cls-5" x="96.88" y="149.6" width="3.49" height="10.34"/><rect class="cls-5" x="101.73" y="137.53" width="3.49" height="22.4"/><rect class="cls-5" x="106.59" y="123.43" width="3.49" height="36.5"/><rect class="cls-5" x="111.45" y="141.68" width="3.49" height="18.25"/><rect class="cls-5" x="116.31" y="133.78" width="3.49" height="26.16"/><rect class="cls-5" x="121.16" y="136.91" width="3.49" height="23.03"/><rect class="cls-5" x="126.02" y="126.25" width="3.49" height="33.68"/><rect class="cls-5" x="130.88" y="117.63" width="3.49" height="42.3"/><rect class="cls-5" x="135.74" y="139.41" width="3.49" height="20.52"/><rect class="cls-5" x="140.59" y="142.62" width="3.49" height="17.31"/><rect class="cls-5" x="145.45" y="132.36" width="3.49" height="27.57"/><rect class="cls-5" x="150.31" y="127.75" width="3.49" height="32.19"/><rect class="cls-5" x="155.16" y="146.15" width="3.49" height="13.79"/><path class="cls-8" d="M66.36,93.11a3.3,3.3,0,1,1-3.3-3.3A3.3,3.3,0,0,1,66.36,93.11Z"/><path class="cls-9" d="M77.45,93.11a3.3,3.3,0,1,1-3.3-3.3A3.3,3.3,0,0,1,77.45,93.11Z"/><path class="cls-8" d="M88.53,93.11a3.3,3.3,0,1,1-3.3-3.3A3.3,3.3,0,0,1,88.53,93.11Z"/><path class="cls-9" d="M99.62,93.11a3.31,3.31,0,1,1-3.31-3.3A3.31,3.31,0,0,1,99.62,93.11Z"/><path class="cls-8" d="M110.7,93.11a3.3,3.3,0,1,1-3.3-3.3A3.3,3.3,0,0,1,110.7,93.11Z"/><path class="cls-10" d="M121.78,93.11a3.3,3.3,0,1,1-3.3-3.3A3.3,3.3,0,0,1,121.78,93.11Z"/><path class="cls-8" d="M132.87,93.11a3.3,3.3,0,1,1-3.3-3.3A3.3,3.3,0,0,1,132.87,93.11Z"/><path class="cls-10" d="M144,93.11a3.3,3.3,0,1,1-3.3-3.3A3.3,3.3,0,0,1,144,93.11Z"/><rect class="cls-10" x="48.3" y="88.82" width="4.86" height="8.7"/></g></g></svg>