<svg xmlns="http://www.w3.org/2000/svg" viewBox="0 0 202.67 202.67"><defs><style>.cls-1{fill:#39b09c;stroke-miterlimit:10;}.cls-1,.cls-5{stroke:#0c293c;}.cls-1,.cls-2,.cls-3,.cls-4,.cls-5{stroke-width:5px;}.cls-2{fill:#fff6e5;}.cls-2,.cls-3,.cls-4{stroke:#05293d;}.cls-3{fill:none;}.cls-4{fill:#fbb03b;}.cls-4,.cls-5{stroke-linecap:round;stroke-linejoin:round;}.cls-5{fill:#78c6b8;}</style></defs><title>Z</title><g id="Capa_2" data-name="Capa 2"><g id="OBJECTS"><rect class="cls-1" x="2.5" y="2.5" width="197.67" height="197.67" rx="10"/><line class="cls-2" x1="152.21" y1="182.13" x2="152.21" y2="143.07"/><path class="cls-2" d="M177.77,132.77a10.3,10.3,0,0,1-10.3,10.3H137a10.3,10.3,0,0,1-10.29-10.3h0A10.3,10.3,0,0,1,137,122.47h30.52a10.3,10.3,0,0,1,10.3,10.3Z"/><polyline class="cls-3" points="126.66 132.77 84.3 132.77 84.3 78.23"/><rect class="cls-4" x="74.13" y="72.29" width="20.33" height="13.37"/><path class="cls-4" d="M142.33,65.28c0,6.43-26,11.64-58,11.64s-58-5.21-58-11.64,26-11.63,58-11.63S142.33,58.86,142.33,65.28Z"/><path class="cls-4" d="M89.15,55.56c0,1.38-2.17,2.5-4.85,2.5h0c-2.68,0-4.85-1.12-4.85-2.5V42.32c0-1.38,2.17-2.5,4.85-2.5h0c2.68,0,4.85,1.12,4.85,2.5Z"/><line class="cls-5" x1="35.88" y1="90.99" x2="18.64" y2="99.74"/><line class="cls-5" x1="56.74" y1="104.2" x2="54.12" y2="123.36"/><line class="cls-5" x1="33.25" y1="119.83" x2="45.3" y2="98.02"/><line class="cls-5" x1="146" y1="45.42" x2="163.24" y2="36.66"/><line class="cls-5" x1="125.14" y1="32.21" x2="127.76" y2="13.05"/><line class="cls-5" x1="148.63" y1="16.58" x2="136.58" y2="38.38"/></g></g></svg>